# xmcd
#
# Track frame offsets:
#	150
#	141652
#	163335
#	185134
#	205392
#	207027
#	216790
#
# Disc length: 3135 seconds
#
# Revision: 1
# Processed by: cddbd v1.5.1PL0 Copyright (c) Steve Scherf et al.
# Submitted via: audiograbber 1.82.01
#
DISCID=760c3d07
DTITLE=Led Zeppelin - The Lost Sessions Vol. 2
DYEAR=1900
DGENRE=
TTITLE0=Led Zeppelin - Friends (rehearsal session)
TTITLE1=Led Zeppelin - Four Sticks (rehearsal take)
TTITLE2=Led Zeppelin - Friends (final vocal mix take 1)
TTITLE3=Led Zeppelin - Friends (final vocal mix take 2)
TTITLE4=Led Zeppelin - Four Sticks (final mix take 1)
TTITLE5=Led Zeppelin - Four Sticks (final mix take 2)
TTITLE6=Led Zeppelin - bonus track - LZ II Outtakes - Whole Lotta Love - Heartb
TTITLE6=reaker - Ramble On
EXTD=
EXTT0=
EXTT1=
EXTT2=
EXTT3=
EXTT4=
EXTT5=
EXTT6=
PLAYORDER=
